<?xml version="1.0" encoding="utf-8" standalone="no"?>
<!DOCTYPE svg PUBLIC "-//W3C//DTD SVG 1.1//EN"
  "http://www.w3.org/Graphics/SVG/1.1/DTD/svg11.dtd">
<svg xmlns:xlink="http://www.w3.org/1999/xlink" width="383.719344pt" height="378.401969pt" viewBox="0 0 383.719344 378.401969" xmlns="http://www.w3.org/2000/svg" version="1.1">
 <metadata>
  <rdf:RDF xmlns:dc="http://purl.org/dc/elements/1.1/" xmlns:cc="http://creativecommons.org/ns#" xmlns:rdf="http://www.w3.org/1999/02/22-rdf-syntax-ns#">
   <cc:Work>
    <dc:type rdf:resource="http://purl.org/dc/dcmitype/StillImage"/>
    <dc:date>2026-07-13T00:18:24.381172</dc:date>
    <dc:format>image/svg+xml</dc:format>
    <dc:creator>
     <cc:Agent>
      <dc:title>Matplotlib v3.11.0, https://matplotlib.org/</dc:title>
     </cc:Agent>
    </dc:creator>
   </cc:Work>
  </rdf:RDF>
 </metadata>
 <defs>
  <style type="text/css">*{stroke-linejoin: round; stroke-linecap: butt}</style>
 </defs>
 <g id="figure_1">
  <g id="patch_1">
   <path d="M 0 378.401969 
L 383.719344 378.401969 
L 383.719344 0 
L 0 0 
z
" style="fill: #ffffff"/>
  </g>
  <g id="axes_1">
   <g id="patch_2">
    <path d="M 53.920469 339.541969 
L 364.384469 339.541969 
L 364.384469 29.077969 
L 53.920469 29.077969 
z
" style="fill: #ffffff"/>
   </g>
   <g id="line2d_1">
    <path d="M 53.920469 184.309969 
L 364.384469 184.309969 
" clip-path="url(#p02f9febc8e)" style="fill: none; stroke: #e4e3df; stroke-linecap: square"/>
   </g>
   <g id="line2d_2">
    <path d="M 209.152469 339.541969 
L 209.152469 29.077969 
" clip-path="url(#p02f9febc8e)" style="fill: none; stroke: #e4e3df; stroke-linecap: square"/>
   </g>
   <g id="patch_3">
    <path d="M 119.877106 184.309969 
L 164.514788 251.26649 
L 209.152469 286.976635 
L 253.79015 251.26649 
L 298.427831 184.309969 
L 253.79015 117.353447 
L 209.152469 81.643302 
L 164.514788 117.353447 
z
" clip-path="url(#p02f9febc8e)" style="fill: #2a78d6; opacity: 0.12"/>
   </g>
   <g id="matplotlib.axis_1">
    <g id="xtick_1">
     <g id="line2d_3">
      <path d="M 75.239425 339.541969 
L 75.239425 29.077969 
" clip-path="url(#p02f9febc8e)" style="fill: none; stroke: #e4e3df; stroke-width: 0.6; stroke-linecap: square"/>
     </g>
     <g id="line2d_4">
      <defs>
       <path id="m7f1e96b718" d="M 0 0 
L 0 3.5 
" style="stroke: #52514e; stroke-width: 0.8"/>
      </defs>
      <g>
       <use xlink:href="#m7f1e96b718" x="75.239425" y="339.541969" style="fill: #52514e; stroke: #52514e; stroke-width: 0.8"/>
      </g>
     </g>
     <g id="text_1">
      <!-- −150 -->
      <g style="fill: #52514e" transform="translate(62.879191 353.379859) scale(0.09 -0.09)">
       <defs>
        <path id="DejaVuSans-c9c" d="M 678 2272 
L 4684 2272 
L 4684 1741 
L 678 1741 
L 678 2272 
z
" transform="scale(0.015625)"/>
        <path id="DejaVuSans-14" d="M 794 531 
L 1825 531 
L 1825 4091 
L 703 3866 
L 703 4441 
L 1819 4666 
L 2450 4666 
L 2450 531 
L 3481 531 
L 3481 0 
L 794 0 
L 794 531 
z
" transform="scale(0.015625)"/>
        <path id="DejaVuSans-18" d="M 691 4666 
L 3169 4666 
L 3169 4134 
L 1269 4134 
L 1269 2991 
Q 1406 3038 1543 3061 
Q 1681 3084 1819 3084 
Q 2600 3084 3056 2656 
Q 3513 2228 3513 1497 
Q 3513 744 3044 326 
Q 2575 -91 1722 -91 
Q 1428 -91 1123 -41 
Q 819 9 494 109 
L 494 744 
Q 775 591 1075 516 
Q 1375 441 1709 441 
Q 2250 441 2565 725 
Q 2881 1009 2881 1497 
Q 2881 1984 2565 2268 
Q 2250 2553 1709 2553 
Q 1456 2553 1204 2497 
Q 953 2441 691 2322 
L 691 4666 
z
" transform="scale(0.015625)"/>
        <path id="DejaVuSans-13" d="M 2034 4250 
Q 1547 4250 1301 3770 
Q 1056 3291 1056 2328 
Q 1056 1369 1301 889 
Q 1547 409 2034 409 
Q 2525 409 2770 889 
Q 3016 1369 3016 2328 
Q 3016 3291 2770 3770 
Q 2525 4250 2034 4250 
z
M 2034 4750 
Q 2819 4750 3233 4129 
Q 3647 3509 3647 2328 
Q 3647 1150 3233 529 
Q 2819 -91 2034 -91 
Q 1250 -91 836 529 
Q 422 1150 422 2328 
Q 422 3509 836 4129 
Q 1250 4750 2034 4750 
z
" transform="scale(0.015625)"/>
       </defs>
       <use xlink:href="#DejaVuSans-c9c"/>
       <use xlink:href="#DejaVuSans-14" transform="translate(83.796875 0)"/>
       <use xlink:href="#DejaVuSans-18" transform="translate(147.421875 0)"/>
       <use xlink:href="#DejaVuSans-13" transform="translate(211.046875 0)"/>
      </g>
     </g>
    </g>
    <g id="xtick_2">
     <g id="line2d_5">
      <path d="M 119.877106 339.541969 
L 119.877106 29.077969 
" clip-path="url(#p02f9febc8e)" style="fill: none; stroke: #e4e3df; stroke-width: 0.6; stroke-linecap: square"/>
     </g>
     <g id="line2d_6">
      <g>
       <use xlink:href="#m7f1e96b718" x="119.877106" y="339.541969" style="fill: #52514e; stroke: #52514e; stroke-width: 0.8"/>
      </g>
     </g>
     <g id="text_2">
      <!-- −100 -->
      <g style="fill: #52514e" transform="translate(107.516872 353.379859) scale(0.09 -0.09)">
       <use xlink:href="#DejaVuSans-c9c"/>
       <use xlink:href="#DejaVuSans-14" transform="translate(83.796875 0)"/>
       <use xlink:href="#DejaVuSans-13" transform="translate(147.421875 0)"/>
       <use xlink:href="#DejaVuSans-13" transform="translate(211.046875 0)"/>
      </g>
     </g>
    </g>
    <g id="xtick_3">
     <g id="line2d_7">
      <path d="M 164.514788 339.541969 
L 164.514788 29.077969 
" clip-path="url(#p02f9febc8e)" style="fill: none; stroke: #e4e3df; stroke-width: 0.6; stroke-linecap: square"/>
     </g>
     <g id="line2d_8">
      <g>
       <use xlink:href="#m7f1e96b718" x="164.514788" y="339.541969" style="fill: #52514e; stroke: #52514e; stroke-width: 0.8"/>
      </g>
     </g>
     <g id="text_3">
      <!-- −50 -->
      <g style="fill: #52514e" transform="translate(155.017678 353.379859) scale(0.09 -0.09)">
       <use xlink:href="#DejaVuSans-c9c"/>
       <use xlink:href="#DejaVuSans-18" transform="translate(83.796875 0)"/>
       <use xlink:href="#DejaVuSans-13" transform="translate(147.421875 0)"/>
      </g>
     </g>
    </g>
    <g id="xtick_4">
     <g id="line2d_9">
      <path d="M 209.152469 339.541969 
L 209.152469 29.077969 
" clip-path="url(#p02f9febc8e)" style="fill: none; stroke: #e4e3df; stroke-width: 0.6; stroke-linecap: square"/>
     </g>
     <g id="line2d_10">
      <g>
       <use xlink:href="#m7f1e96b718" x="209.152469" y="339.541969" style="fill: #52514e; stroke: #52514e; stroke-width: 0.8"/>
      </g>
     </g>
     <g id="text_4">
      <!-- 0 -->
      <g style="fill: #52514e" transform="translate(206.289344 353.379859) scale(0.09 -0.09)">
       <use xlink:href="#DejaVuSans-13"/>
      </g>
     </g>
    </g>
    <g id="xtick_5">
     <g id="line2d_11">
      <path d="M 253.79015 339.541969 
L 253.79015 29.077969 
" clip-path="url(#p02f9febc8e)" style="fill: none; stroke: #e4e3df; stroke-width: 0.6; stroke-linecap: square"/>
     </g>
     <g id="line2d_12">
      <g>
       <use xlink:href="#m7f1e96b718" x="253.79015" y="339.541969" style="fill: #52514e; stroke: #52514e; stroke-width: 0.8"/>
      </g>
     </g>
     <g id="text_5">
      <!-- 50 -->
      <g style="fill: #52514e" transform="translate(248.0639 353.379859) scale(0.09 -0.09)">
       <use xlink:href="#DejaVuSans-18"/>
       <use xlink:href="#DejaVuSans-13" transform="translate(63.625 0)"/>
      </g>
     </g>
    </g>
    <g id="xtick_6">
     <g id="line2d_13">
      <path d="M 298.427831 339.541969 
L 298.427831 29.077969 
" clip-path="url(#p02f9febc8e)" style="fill: none; stroke: #e4e3df; stroke-width: 0.6; stroke-linecap: square"/>
     </g>
     <g id="line2d_14">
      <g>
       <use xlink:href="#m7f1e96b718" x="298.427831" y="339.541969" style="fill: #52514e; stroke: #52514e; stroke-width: 0.8"/>
      </g>
     </g>
     <g id="text_6">
      <!-- 100 -->
      <g style="fill: #52514e" transform="translate(289.838456 353.379859) scale(0.09 -0.09)">
       <use xlink:href="#DejaVuSans-14"/>
       <use xlink:href="#DejaVuSans-13" transform="translate(63.625 0)"/>
       <use xlink:href="#DejaVuSans-13" transform="translate(127.25 0)"/>
      </g>
     </g>
    </g>
    <g id="xtick_7">
     <g id="line2d_15">
      <path d="M 343.065512 339.541969 
L 343.065512 29.077969 
" clip-path="url(#p02f9febc8e)" style="fill: none; stroke: #e4e3df; stroke-width: 0.6; stroke-linecap: square"/>
     </g>
     <g id="line2d_16">
      <g>
       <use xlink:href="#m7f1e96b718" x="343.065512" y="339.541969" style="fill: #52514e; stroke: #52514e; stroke-width: 0.8"/>
      </g>
     </g>
     <g id="text_7">
      <!-- 150 -->
      <g style="fill: #52514e" transform="translate(334.476137 353.379859) scale(0.09 -0.09)">
       <use xlink:href="#DejaVuSans-14"/>
       <use xlink:href="#DejaVuSans-18" transform="translate(63.625 0)"/>
       <use xlink:href="#DejaVuSans-13" transform="translate(127.25 0)"/>
      </g>
     </g>
    </g>
    <g id="text_8">
     <!-- pitch torque  $\tau_y$ -->
     <g style="fill: #52514e" transform="translate(166.417469 367.901969) scale(0.11 -0.11)">
      <defs>
       <path id="DejaVuSans-53" d="M 1159 525 
L 1159 -1331 
L 581 -1331 
L 581 3500 
L 1159 3500 
L 1159 2969 
Q 1341 3281 1617 3432 
Q 1894 3584 2278 3584 
Q 2916 3584 3314 3078 
Q 3713 2572 3713 1747 
Q 3713 922 3314 415 
Q 2916 -91 2278 -91 
Q 1894 -91 1617 61 
Q 1341 213 1159 525 
z
M 3116 1747 
Q 3116 2381 2855 2742 
Q 2594 3103 2138 3103 
Q 1681 3103 1420 2742 
Q 1159 2381 1159 1747 
Q 1159 1113 1420 752 
Q 1681 391 2138 391 
Q 2594 391 2855 752 
Q 3116 1113 3116 1747 
z
" transform="scale(0.015625)"/>
       <path id="DejaVuSans-4c" d="M 603 3500 
L 1178 3500 
L 1178 0 
L 603 0 
L 603 3500 
z
M 603 4863 
L 1178 4863 
L 1178 4134 
L 603 4134 
L 603 4863 
z
" transform="scale(0.015625)"/>
       <path id="DejaVuSans-57" d="M 1172 4494 
L 1172 3500 
L 2356 3500 
L 2356 3053 
L 1172 3053 
L 1172 1153 
Q 1172 725 1289 603 
Q 1406 481 1766 481 
L 2356 481 
L 2356 0 
L 1766 0 
Q 1100 0 847 248 
Q 594 497 594 1153 
L 594 3053 
L 172 3053 
L 172 3500 
L 594 3500 
L 594 4494 
L 1172 4494 
z
" transform="scale(0.015625)"/>
       <path id="DejaVuSans-46" d="M 3122 3366 
L 3122 2828 
Q 2878 2963 2633 3030 
Q 2388 3097 2138 3097 
Q 1578 3097 1268 2742 
Q 959 2388 959 1747 
Q 959 1106 1268 751 
Q 1578 397 2138 397 
Q 2388 397 2633 464 
Q 2878 531 3122 666 
L 3122 134 
Q 2881 22 2623 -34 
Q 2366 -91 2075 -91 
Q 1284 -91 818 406 
Q 353 903 353 1747 
Q 353 2603 823 3093 
Q 1294 3584 2113 3584 
Q 2378 3584 2631 3529 
Q 2884 3475 3122 3366 
z
" transform="scale(0.015625)"/>
       <path id="DejaVuSans-4b" d="M 3513 2113 
L 3513 0 
L 2938 0 
L 2938 2094 
Q 2938 2591 2744 2837 
Q 2550 3084 2163 3084 
Q 1697 3084 1428 2787 
Q 1159 2491 1159 1978 
L 1159 0 
L 581 0 
L 581 4863 
L 1159 4863 
L 1159 2956 
Q 1366 3272 1645 3428 
Q 1925 3584 2291 3584 
Q 2894 3584 3203 3211 
Q 3513 2838 3513 2113 
z
" transform="scale(0.015625)"/>
       <path id="DejaVuSans-3" transform="scale(0.015625)"/>
       <path id="DejaVuSans-52" d="M 1959 3097 
Q 1497 3097 1228 2736 
Q 959 2375 959 1747 
Q 959 1119 1226 758 
Q 1494 397 1959 397 
Q 2419 397 2687 759 
Q 2956 1122 2956 1747 
Q 2956 2369 2687 2733 
Q 2419 3097 1959 3097 
z
M 1959 3584 
Q 2709 3584 3137 3096 
Q 3566 2609 3566 1747 
Q 3566 888 3137 398 
Q 2709 -91 1959 -91 
Q 1206 -91 779 398 
Q 353 888 353 1747 
Q 353 2609 779 3096 
Q 1206 3584 1959 3584 
z
" transform="scale(0.015625)"/>
       <path id="DejaVuSans-55" d="M 2631 2963 
Q 2534 3019 2420 3045 
Q 2306 3072 2169 3072 
Q 1681 3072 1420 2755 
Q 1159 2438 1159 1844 
L 1159 0 
L 581 0 
L 581 3500 
L 1159 3500 
L 1159 2956 
Q 1341 3275 1631 3429 
Q 1922 3584 2338 3584 
Q 2397 3584 2469 3576 
Q 2541 3569 2628 3553 
L 2631 2963 
z
" transform="scale(0.015625)"/>
       <path id="DejaVuSans-54" d="M 947 1747 
Q 947 1113 1208 752 
Q 1469 391 1925 391 
Q 2381 391 2643 752 
Q 2906 1113 2906 1747 
Q 2906 2381 2643 2742 
Q 2381 3103 1925 3103 
Q 1469 3103 1208 2742 
Q 947 2381 947 1747 
z
M 2906 525 
Q 2725 213 2448 61 
Q 2172 -91 1784 -91 
Q 1150 -91 751 415 
Q 353 922 353 1747 
Q 353 2572 751 3078 
Q 1150 3584 1784 3584 
Q 2172 3584 2448 3432 
Q 2725 3281 2906 2969 
L 2906 3500 
L 3481 3500 
L 3481 -1331 
L 2906 -1331 
L 2906 525 
z
" transform="scale(0.015625)"/>
       <path id="DejaVuSans-58" d="M 544 1381 
L 544 3500 
L 1119 3500 
L 1119 1403 
Q 1119 906 1312 657 
Q 1506 409 1894 409 
Q 2359 409 2629 706 
Q 2900 1003 2900 1516 
L 2900 3500 
L 3475 3500 
L 3475 0 
L 2900 0 
L 2900 538 
Q 2691 219 2414 64 
Q 2138 -91 1772 -91 
Q 1169 -91 856 284 
Q 544 659 544 1381 
z
M 1991 3584 
L 1991 3584 
z
" transform="scale(0.015625)"/>
       <path id="DejaVuSans-48" d="M 3597 1894 
L 3597 1613 
L 953 1613 
Q 991 1019 1311 708 
Q 1631 397 2203 397 
Q 2534 397 2845 478 
Q 3156 559 3463 722 
L 3463 178 
Q 3153 47 2828 -22 
Q 2503 -91 2169 -91 
Q 1331 -91 842 396 
Q 353 884 353 1716 
Q 353 2575 817 3079 
Q 1281 3584 2069 3584 
Q 2775 3584 3186 3129 
Q 3597 2675 3597 1894 
z
M 3022 2063 
Q 3016 2534 2758 2815 
Q 2500 3097 2075 3097 
Q 1594 3097 1305 2825 
Q 1016 2553 972 2059 
L 3022 2063 
z
" transform="scale(0.015625)"/>
       <path id="DejaVuSans-Oblique-358" d="M 2103 638 
Q 2188 488 2525 488 
L 2800 488 
L 2706 0 
L 2363 0 
Q 1800 0 1600 300 
Q 1403 606 1534 1269 
L 1856 2925 
L 541 2925 
L 653 3500 
L 3881 3500 
L 3769 2925 
L 2444 2925 
L 2113 1234 
Q 2025 781 2103 638 
z
" transform="scale(0.015625)"/>
       <path id="DejaVuSans-Oblique-5c" d="M 1588 -325 
Q 1188 -997 936 -1164 
Q 684 -1331 294 -1331 
L -159 -1331 
L -63 -850 
L 269 -850 
Q 509 -850 678 -719 
Q 847 -588 1056 -206 
L 1234 128 
L 459 3500 
L 1069 3500 
L 1650 819 
L 3256 3500 
L 3859 3500 
L 1588 -325 
z
" transform="scale(0.015625)"/>
      </defs>
      <use xlink:href="#DejaVuSans-53" transform="translate(0 0.015625)"/>
      <use xlink:href="#DejaVuSans-4c" transform="translate(63.476562 0.015625)"/>
      <use xlink:href="#DejaVuSans-57" transform="translate(91.259766 0.015625)"/>
      <use xlink:href="#DejaVuSans-46" transform="translate(130.46875 0.015625)"/>
      <use xlink:href="#DejaVuSans-4b" transform="translate(185.449219 0.015625)"/>
      <use xlink:href="#DejaVuSans-3" transform="translate(248.828125 0.015625)"/>
      <use xlink:href="#DejaVuSans-57" transform="translate(280.615234 0.015625)"/>
      <use xlink:href="#DejaVuSans-52" transform="translate(319.824219 0.015625)"/>
      <use xlink:href="#DejaVuSans-55" transform="translate(381.005859 0.015625)"/>
      <use xlink:href="#DejaVuSans-54" transform="translate(420.119141 0.015625)"/>
      <use xlink:href="#DejaVuSans-58" transform="translate(483.595703 0.015625)"/>
      <use xlink:href="#DejaVuSans-48" transform="translate(546.974609 0.015625)"/>
      <use xlink:href="#DejaVuSans-3" transform="translate(608.498047 0.015625)"/>
      <use xlink:href="#DejaVuSans-3" transform="translate(640.285156 0.015625)"/>
      <use xlink:href="#DejaVuSans-Oblique-358" transform="translate(672.072266 0.015625)"/>
      <use xlink:href="#DejaVuSans-Oblique-5c" transform="translate(732.277344 -14.984326) scale(0.7)"/>
     </g>
    </g>
   </g>
   <g id="matplotlib.axis_2">
    <g id="ytick_1">
     <g id="line2d_17">
      <path d="M 53.920469 318.223012 
L 364.384469 318.223012 
" clip-path="url(#p02f9febc8e)" style="fill: none; stroke: #e4e3df; stroke-width: 0.6; stroke-linecap: square"/>
     </g>
     <g id="line2d_18">
      <defs>
       <path id="m6c9bcb6d9d" d="M 0 0 
L -3.5 0 
" style="stroke: #52514e; stroke-width: 0.8"/>
      </defs>
      <g>
       <use xlink:href="#m6c9bcb6d9d" x="53.920469" y="318.223012" style="fill: #52514e; stroke: #52514e; stroke-width: 0.8"/>
      </g>
     </g>
     <g id="text_9">
      <!-- −150 -->
      <g style="fill: #52514e" transform="translate(22.2 321.641958) scale(0.09 -0.09)">
       <use xlink:href="#DejaVuSans-c9c"/>
       <use xlink:href="#DejaVuSans-14" transform="translate(83.796875 0)"/>
       <use xlink:href="#DejaVuSans-18" transform="translate(147.421875 0)"/>
       <use xlink:href="#DejaVuSans-13" transform="translate(211.046875 0)"/>
      </g>
     </g>
    </g>
    <g id="ytick_2">
     <g id="line2d_19">
      <path d="M 53.920469 273.585331 
L 364.384469 273.585331 
" clip-path="url(#p02f9febc8e)" style="fill: none; stroke: #e4e3df; stroke-width: 0.6; stroke-linecap: square"/>
     </g>
     <g id="line2d_20">
      <g>
       <use xlink:href="#m6c9bcb6d9d" x="53.920469" y="273.585331" style="fill: #52514e; stroke: #52514e; stroke-width: 0.8"/>
      </g>
     </g>
     <g id="text_10">
      <!-- −100 -->
      <g style="fill: #52514e" transform="translate(22.2 277.004276) scale(0.09 -0.09)">
       <use xlink:href="#DejaVuSans-c9c"/>
       <use xlink:href="#DejaVuSans-14" transform="translate(83.796875 0)"/>
       <use xlink:href="#DejaVuSans-13" transform="translate(147.421875 0)"/>
       <use xlink:href="#DejaVuSans-13" transform="translate(211.046875 0)"/>
      </g>
     </g>
    </g>
    <g id="ytick_3">
     <g id="line2d_21">
      <path d="M 53.920469 228.94765 
L 364.384469 228.94765 
" clip-path="url(#p02f9febc8e)" style="fill: none; stroke: #e4e3df; stroke-width: 0.6; stroke-linecap: square"/>
     </g>
     <g id="line2d_22">
      <g>
       <use xlink:href="#m6c9bcb6d9d" x="53.920469" y="228.94765" style="fill: #52514e; stroke: #52514e; stroke-width: 0.8"/>
      </g>
     </g>
     <g id="text_11">
      <!-- −50 -->
      <g style="fill: #52514e" transform="translate(27.92625 232.366595) scale(0.09 -0.09)">
       <use xlink:href="#DejaVuSans-c9c"/>
       <use xlink:href="#DejaVuSans-18" transform="translate(83.796875 0)"/>
       <use xlink:href="#DejaVuSans-13" transform="translate(147.421875 0)"/>
      </g>
     </g>
    </g>
    <g id="ytick_4">
     <g id="line2d_23">
      <path d="M 53.920469 184.309969 
L 364.384469 184.309969 
" clip-path="url(#p02f9febc8e)" style="fill: none; stroke: #e4e3df; stroke-width: 0.6; stroke-linecap: square"/>
     </g>
     <g id="line2d_24">
      <g>
       <use xlink:href="#m6c9bcb6d9d" x="53.920469" y="184.309969" style="fill: #52514e; stroke: #52514e; stroke-width: 0.8"/>
      </g>
     </g>
     <g id="text_12">
      <!-- 0 -->
      <g style="fill: #52514e" transform="translate(41.194219 187.728914) scale(0.09 -0.09)">
       <use xlink:href="#DejaVuSans-13"/>
      </g>
     </g>
    </g>
    <g id="ytick_5">
     <g id="line2d_25">
      <path d="M 53.920469 139.672288 
L 364.384469 139.672288 
" clip-path="url(#p02f9febc8e)" style="fill: none; stroke: #e4e3df; stroke-width: 0.6; stroke-linecap: square"/>
     </g>
     <g id="line2d_26">
      <g>
       <use xlink:href="#m6c9bcb6d9d" x="53.920469" y="139.672288" style="fill: #52514e; stroke: #52514e; stroke-width: 0.8"/>
      </g>
     </g>
     <g id="text_13">
      <!-- 50 -->
      <g style="fill: #52514e" transform="translate(35.467969 143.091233) scale(0.09 -0.09)">
       <use xlink:href="#DejaVuSans-18"/>
       <use xlink:href="#DejaVuSans-13" transform="translate(63.625 0)"/>
      </g>
     </g>
    </g>
    <g id="ytick_6">
     <g id="line2d_27">
      <path d="M 53.920469 95.034606 
L 364.384469 95.034606 
" clip-path="url(#p02f9febc8e)" style="fill: none; stroke: #e4e3df; stroke-width: 0.6; stroke-linecap: square"/>
     </g>
     <g id="line2d_28">
      <g>
       <use xlink:href="#m6c9bcb6d9d" x="53.920469" y="95.034606" style="fill: #52514e; stroke: #52514e; stroke-width: 0.8"/>
      </g>
     </g>
     <g id="text_14">
      <!-- 100 -->
      <g style="fill: #52514e" transform="translate(29.741719 98.453552) scale(0.09 -0.09)">
       <use xlink:href="#DejaVuSans-14"/>
       <use xlink:href="#DejaVuSans-13" transform="translate(63.625 0)"/>
       <use xlink:href="#DejaVuSans-13" transform="translate(127.25 0)"/>
      </g>
     </g>
    </g>
    <g id="ytick_7">
     <g id="line2d_29">
      <path d="M 53.920469 50.396925 
L 364.384469 50.396925 
" clip-path="url(#p02f9febc8e)" style="fill: none; stroke: #e4e3df; stroke-width: 0.6; stroke-linecap: square"/>
     </g>
     <g id="line2d_30">
      <g>
       <use xlink:href="#m6c9bcb6d9d" x="53.920469" y="50.396925" style="fill: #52514e; stroke: #52514e; stroke-width: 0.8"/>
      </g>
     </g>
     <g id="text_15">
      <!-- 150 -->
      <g style="fill: #52514e" transform="translate(29.741719 53.815871) scale(0.09 -0.09)">
       <use xlink:href="#DejaVuSans-14"/>
       <use xlink:href="#DejaVuSans-18" transform="translate(63.625 0)"/>
       <use xlink:href="#DejaVuSans-13" transform="translate(127.25 0)"/>
      </g>
     </g>
    </g>
    <g id="text_16">
     <!-- yaw torque  $\tau_z$ -->
     <g style="fill: #52514e" transform="translate(15.557422 224.239969) rotate(-90) scale(0.11 -0.11)">
      <defs>
       <path id="DejaVuSans-5c" d="M 2059 -325 
Q 1816 -950 1584 -1140 
Q 1353 -1331 966 -1331 
L 506 -1331 
L 506 -850 
L 844 -850 
Q 1081 -850 1212 -737 
Q 1344 -625 1503 -206 
L 1606 56 
L 191 3500 
L 800 3500 
L 1894 763 
L 2988 3500 
L 3597 3500 
L 2059 -325 
z
" transform="scale(0.015625)"/>
       <path id="DejaVuSans-44" d="M 2194 1759 
Q 1497 1759 1228 1600 
Q 959 1441 959 1056 
Q 959 750 1161 570 
Q 1363 391 1709 391 
Q 2188 391 2477 730 
Q 2766 1069 2766 1631 
L 2766 1759 
L 2194 1759 
z
M 3341 1997 
L 3341 0 
L 2766 0 
L 2766 531 
Q 2569 213 2275 61 
Q 1981 -91 1556 -91 
Q 1019 -91 701 211 
Q 384 513 384 1019 
Q 384 1609 779 1909 
Q 1175 2209 1959 2209 
L 2766 2209 
L 2766 2266 
Q 2766 2663 2505 2880 
Q 2244 3097 1772 3097 
Q 1472 3097 1187 3025 
Q 903 2953 641 2809 
L 641 3341 
Q 956 3463 1253 3523 
Q 1550 3584 1831 3584 
Q 2591 3584 2966 3190 
Q 3341 2797 3341 1997 
z
" transform="scale(0.015625)"/>
       <path id="DejaVuSans-5a" d="M 269 3500 
L 844 3500 
L 1563 769 
L 2278 3500 
L 2956 3500 
L 3675 769 
L 4391 3500 
L 4966 3500 
L 4050 0 
L 3372 0 
L 2619 2869 
L 1863 0 
L 1184 0 
L 269 3500 
z
" transform="scale(0.015625)"/>
       <path id="DejaVuSans-Oblique-5d" d="M 744 3500 
L 3475 3500 
L 3372 2975 
L 738 459 
L 2913 459 
L 2822 0 
L -19 0 
L 84 525 
L 2719 3041 
L 653 3041 
L 744 3500 
z
" transform="scale(0.015625)"/>
      </defs>
      <use xlink:href="#DejaVuSans-5c" transform="translate(0 0.78125)"/>
      <use xlink:href="#DejaVuSans-44" transform="translate(59.179688 0.78125)"/>
      <use xlink:href="#DejaVuSans-5a" transform="translate(120.458984 0.78125)"/>
      <use xlink:href="#DejaVuSans-3" transform="translate(202.246094 0.78125)"/>
      <use xlink:href="#DejaVuSans-57" transform="translate(234.033203 0.78125)"/>
      <use xlink:href="#DejaVuSans-52" transform="translate(273.242188 0.78125)"/>
      <use xlink:href="#DejaVuSans-55" transform="translate(334.423828 0.78125)"/>
      <use xlink:href="#DejaVuSans-54" transform="translate(373.537109 0.78125)"/>
      <use xlink:href="#DejaVuSans-58" transform="translate(437.013672 0.78125)"/>
      <use xlink:href="#DejaVuSans-48" transform="translate(500.392578 0.78125)"/>
      <use xlink:href="#DejaVuSans-3" transform="translate(561.916016 0.78125)"/>
      <use xlink:href="#DejaVuSans-3" transform="translate(593.703125 0.78125)"/>
      <use xlink:href="#DejaVuSans-Oblique-358" transform="translate(625.490234 0.78125)"/>
      <use xlink:href="#DejaVuSans-Oblique-5d" transform="translate(685.695312 -14.218701) scale(0.7)"/>
     </g>
    </g>
   </g>
   <g id="patch_4">
    <path d="M 347.752469 184.309969 
Q 323.09015 184.309969 299.545865 184.309969 
" style="fill: none; opacity: 0.65; stroke: #52514e; stroke-linecap: round"/>
    <path d="M 303.545865 186.309969 
L 299.545865 184.309969 
L 303.545865 182.309969 
z
" style="fill: #52514e; opacity: 0.65; stroke: #52514e; stroke-linecap: round"/>
   </g>
   <g id="patch_5">
    <path d="M 343.029788 148.437649 
Q 319.312421 164.249227 296.525315 179.440631 
" style="fill: none; opacity: 0.65; stroke: #52514e; stroke-linecap: round"/>
    <path d="M 300.962917 178.88593 
L 296.525315 179.440631 
L 298.744116 175.557729 
z
" style="fill: #52514e; opacity: 0.65; stroke: #52514e; stroke-linecap: round"/>
   </g>
   <g id="patch_6">
    <path d="M 329.18359 115.009969 
Q 302.545058 132.76899 276.836787 149.907838 
" style="fill: none; opacity: 0.65; stroke: #52514e; stroke-linecap: round"/>
    <path d="M 281.274388 149.353137 
L 276.836787 149.907838 
L 279.055587 146.024936 
z
" style="fill: #52514e; opacity: 0.65; stroke: #52514e; stroke-linecap: round"/>
   </g>
   <g id="patch_7">
    <path d="M 307.157469 86.304969 
Q 281.519133 103.397193 256.811057 119.869244 
" style="fill: none; opacity: 0.65; stroke: #52514e; stroke-linecap: round"/>
    <path d="M 261.248659 119.314543 
L 256.811057 119.869244 
L 259.029858 115.986342 
z
" style="fill: #52514e; opacity: 0.65; stroke: #52514e; stroke-linecap: round"/>
   </g>
   <g id="patch_8">
    <path d="M 278.452469 64.278848 
Q 260.695285 86.475328 243.636531 107.79877 
" style="fill: none; opacity: 0.65; stroke: #52514e; stroke-linecap: round"/>
    <path d="M 247.697049 105.924684 
L 243.636531 107.79877 
L 244.573573 103.425904 
z
" style="fill: #52514e; opacity: 0.65; stroke: #52514e; stroke-linecap: round"/>
   </g>
   <g id="patch_9">
    <path d="M 245.024788 50.432649 
Q 230.412957 68.697439 216.499556 86.08919 
" style="fill: none; opacity: 0.65; stroke: #52514e; stroke-linecap: round"/>
    <path d="M 220.560074 84.215105 
L 216.499556 86.08919 
L 217.436599 81.716325 
z
" style="fill: #52514e; opacity: 0.65; stroke: #52514e; stroke-linecap: round"/>
   </g>
   <g id="patch_10">
    <path d="M 209.152469 45.709969 
Q 209.152469 63.676635 209.152469 80.525268 
" style="fill: none; opacity: 0.65; stroke: #52514e; stroke-linecap: round"/>
    <path d="M 211.152469 76.525268 
L 209.152469 80.525268 
L 207.152469 76.525268 
z
" style="fill: #52514e; opacity: 0.65; stroke: #52514e; stroke-linecap: round"/>
   </g>
   <g id="patch_11">
    <path d="M 173.280149 50.432649 
Q 187.89198 68.697439 201.805381 86.08919 
" style="fill: none; opacity: 0.65; stroke: #52514e; stroke-linecap: round"/>
    <path d="M 200.868339 81.716325 
L 201.805381 86.08919 
L 197.744863 84.215105 
z
" style="fill: #52514e; opacity: 0.65; stroke: #52514e; stroke-linecap: round"/>
   </g>
   <g id="patch_12">
    <path d="M 139.852469 64.278848 
Q 157.609653 86.475328 174.668407 107.79877 
" style="fill: none; opacity: 0.65; stroke: #52514e; stroke-linecap: round"/>
    <path d="M 173.731364 103.425904 
L 174.668407 107.79877 
L 170.607889 105.924684 
z
" style="fill: #52514e; opacity: 0.65; stroke: #52514e; stroke-linecap: round"/>
   </g>
   <g id="patch_13">
    <path d="M 111.147469 86.304969 
Q 136.785805 103.397193 161.49388 119.869244 
" style="fill: none; opacity: 0.65; stroke: #52514e; stroke-linecap: round"/>
    <path d="M 159.275079 115.986342 
L 161.49388 119.869244 
L 157.056279 119.314543 
z
" style="fill: #52514e; opacity: 0.65; stroke: #52514e; stroke-linecap: round"/>
   </g>
   <g id="patch_14">
    <path d="M 89.121348 115.009969 
Q 115.75988 132.76899 141.468151 149.907838 
" style="fill: none; opacity: 0.65; stroke: #52514e; stroke-linecap: round"/>
    <path d="M 139.24935 146.024936 
L 141.468151 149.907838 
L 137.030549 149.353137 
z
" style="fill: #52514e; opacity: 0.65; stroke: #52514e; stroke-linecap: round"/>
   </g>
   <g id="patch_15">
    <path d="M 75.275149 148.437649 
Q 98.992516 164.249227 121.779622 179.440631 
" style="fill: none; opacity: 0.65; stroke: #52514e; stroke-linecap: round"/>
    <path d="M 119.560821 175.557729 
L 121.779622 179.440631 
L 117.342021 178.88593 
z
" style="fill: #52514e; opacity: 0.65; stroke: #52514e; stroke-linecap: round"/>
   </g>
   <g id="patch_16">
    <path d="M 70.552469 184.309969 
Q 95.214788 184.309969 118.759072 184.309969 
" style="fill: none; opacity: 0.65; stroke: #52514e; stroke-linecap: round"/>
    <path d="M 114.759072 182.309969 
L 118.759072 184.309969 
L 114.759072 186.309969 
z
" style="fill: #52514e; opacity: 0.65; stroke: #52514e; stroke-linecap: round"/>
   </g>
   <g id="patch_17">
    <path d="M 75.275149 220.182288 
Q 98.992516 204.370711 121.779622 189.179307 
" style="fill: none; opacity: 0.65; stroke: #52514e; stroke-linecap: round"/>
    <path d="M 117.342021 189.734007 
L 121.779622 189.179307 
L 119.560821 193.062208 
z
" style="fill: #52514e; opacity: 0.65; stroke: #52514e; stroke-linecap: round"/>
   </g>
   <g id="patch_18">
    <path d="M 89.121348 253.609969 
Q 115.75988 235.850948 141.468151 218.7121 
" style="fill: none; opacity: 0.65; stroke: #52514e; stroke-linecap: round"/>
    <path d="M 137.030549 219.2668 
L 141.468151 218.7121 
L 139.24935 222.595001 
z
" style="fill: #52514e; opacity: 0.65; stroke: #52514e; stroke-linecap: round"/>
   </g>
   <g id="patch_19">
    <path d="M 111.147469 282.314969 
Q 136.785805 265.222744 161.49388 248.750694 
" style="fill: none; opacity: 0.65; stroke: #52514e; stroke-linecap: round"/>
    <path d="M 157.056279 249.305394 
L 161.49388 248.750694 
L 159.275079 252.633595 
z
" style="fill: #52514e; opacity: 0.65; stroke: #52514e; stroke-linecap: round"/>
   </g>
   <g id="patch_20">
    <path d="M 139.852469 304.34109 
Q 157.609653 282.14461 174.668407 260.821168 
" style="fill: none; opacity: 0.65; stroke: #52514e; stroke-linecap: round"/>
    <path d="M 170.607889 262.695253 
L 174.668407 260.821168 
L 173.731364 265.194033 
z
" style="fill: #52514e; opacity: 0.65; stroke: #52514e; stroke-linecap: round"/>
   </g>
   <g id="patch_21">
    <path d="M 173.280149 318.187288 
Q 187.89198 299.922499 201.805381 282.530747 
" style="fill: none; opacity: 0.65; stroke: #52514e; stroke-linecap: round"/>
    <path d="M 197.744863 284.404833 
L 201.805381 282.530747 
L 200.868339 286.903613 
z
" style="fill: #52514e; opacity: 0.65; stroke: #52514e; stroke-linecap: round"/>
   </g>
   <g id="patch_22">
    <path d="M 209.152469 322.909969 
Q 209.152469 304.943302 209.152469 288.094669 
" style="fill: none; opacity: 0.65; stroke: #52514e; stroke-linecap: round"/>
    <path d="M 207.152469 292.094669 
L 209.152469 288.094669 
L 211.152469 292.094669 
z
" style="fill: #52514e; opacity: 0.65; stroke: #52514e; stroke-linecap: round"/>
   </g>
   <g id="patch_23">
    <path d="M 245.024788 318.187288 
Q 230.412957 299.922499 216.499556 282.530747 
" style="fill: none; opacity: 0.65; stroke: #52514e; stroke-linecap: round"/>
    <path d="M 217.436599 286.903613 
L 216.499556 282.530747 
L 220.560074 284.404833 
z
" style="fill: #52514e; opacity: 0.65; stroke: #52514e; stroke-linecap: round"/>
   </g>
   <g id="patch_24">
    <path d="M 278.452469 304.34109 
Q 260.695285 282.14461 243.636531 260.821168 
" style="fill: none; opacity: 0.65; stroke: #52514e; stroke-linecap: round"/>
    <path d="M 244.573573 265.194033 
L 243.636531 260.821168 
L 247.697049 262.695253 
z
" style="fill: #52514e; opacity: 0.65; stroke: #52514e; stroke-linecap: round"/>
   </g>
   <g id="patch_25">
    <path d="M 307.157469 282.314969 
Q 281.519133 265.222744 256.811057 248.750694 
" style="fill: none; opacity: 0.65; stroke: #52514e; stroke-linecap: round"/>
    <path d="M 259.029858 252.633595 
L 256.811057 248.750694 
L 261.248659 249.305394 
z
" style="fill: #52514e; opacity: 0.65; stroke: #52514e; stroke-linecap: round"/>
   </g>
   <g id="patch_26">
    <path d="M 329.18359 253.609969 
Q 302.545058 235.850948 276.836787 218.7121 
" style="fill: none; opacity: 0.65; stroke: #52514e; stroke-linecap: round"/>
    <path d="M 279.055587 222.595001 
L 276.836787 218.7121 
L 281.274388 219.2668 
z
" style="fill: #52514e; opacity: 0.65; stroke: #52514e; stroke-linecap: round"/>
   </g>
   <g id="patch_27">
    <path d="M 343.029788 220.182288 
Q 319.312421 204.370711 296.525315 189.179307 
" style="fill: none; opacity: 0.65; stroke: #52514e; stroke-linecap: round"/>
    <path d="M 298.744116 193.062208 
L 296.525315 189.179307 
L 300.962917 189.734007 
z
" style="fill: #52514e; opacity: 0.65; stroke: #52514e; stroke-linecap: round"/>
   </g>
   <g id="patch_28">
    <path d="M 53.920469 339.541969 
L 53.920469 29.077969 
" style="fill: none; stroke: #e4e3df; stroke-width: 0.8; stroke-linejoin: miter; stroke-linecap: square"/>
   </g>
   <g id="patch_29">
    <path d="M 364.384469 339.541969 
L 364.384469 29.077969 
" style="fill: none; stroke: #e4e3df; stroke-width: 0.8; stroke-linejoin: miter; stroke-linecap: square"/>
   </g>
   <g id="patch_30">
    <path d="M 53.920469 339.541969 
L 364.384469 339.541969 
" style="fill: none; stroke: #e4e3df; stroke-width: 0.8; stroke-linejoin: miter; stroke-linecap: square"/>
   </g>
   <g id="patch_31">
    <path d="M 53.920469 29.077969 
L 364.384469 29.077969 
" style="fill: none; stroke: #e4e3df; stroke-width: 0.8; stroke-linejoin: miter; stroke-linecap: square"/>
   </g>
   <g id="line2d_31">
    <path d="M 119.877106 184.309969 
L 164.514788 251.26649 
L 209.152469 286.976635 
L 253.79015 251.26649 
L 298.427831 184.309969 
L 253.79015 117.353447 
L 209.152469 81.643302 
L 164.514788 117.353447 
L 119.877106 184.309969 
" clip-path="url(#p02f9febc8e)" style="fill: none; stroke: #2a78d6; stroke-width: 2.2; stroke-linecap: square"/>
   </g>
   <g id="line2d_32">
    <defs>
     <path id="mde32a8a804" d="M -1.5 3 
L 0 1.5 
L 1.5 3 
L 3 1.5 
L 1.5 0 
L 3 -1.5 
L 1.5 -3 
L 0 -1.5 
L -1.5 -3 
L -3 -1.5 
L -1.5 0 
L -3 1.5 
z
" style="stroke: #d03b3b; stroke-linejoin: miter"/>
    </defs>
    <g clip-path="url(#p02f9febc8e)">
     <use xlink:href="#mde32a8a804" x="347.752469" y="184.309969" style="fill: #d03b3b; stroke: #d03b3b; stroke-linejoin: miter"/>
    </g>
   </g>
   <g id="line2d_33">
    <g clip-path="url(#p02f9febc8e)">
     <use xlink:href="#mde32a8a804" x="343.029788" y="148.437649" style="fill: #d03b3b; stroke: #d03b3b; stroke-linejoin: miter"/>
    </g>
   </g>
   <g id="line2d_34">
    <g clip-path="url(#p02f9febc8e)">
     <use xlink:href="#mde32a8a804" x="329.18359" y="115.009969" style="fill: #d03b3b; stroke: #d03b3b; stroke-linejoin: miter"/>
    </g>
   </g>
   <g id="line2d_35">
    <g clip-path="url(#p02f9febc8e)">
     <use xlink:href="#mde32a8a804" x="307.157469" y="86.304969" style="fill: #d03b3b; stroke: #d03b3b; stroke-linejoin: miter"/>
    </g>
   </g>
   <g id="line2d_36">
    <g clip-path="url(#p02f9febc8e)">
     <use xlink:href="#mde32a8a804" x="278.452469" y="64.278848" style="fill: #d03b3b; stroke: #d03b3b; stroke-linejoin: miter"/>
    </g>
   </g>
   <g id="line2d_37">
    <g clip-path="url(#p02f9febc8e)">
     <use xlink:href="#mde32a8a804" x="245.024788" y="50.432649" style="fill: #d03b3b; stroke: #d03b3b; stroke-linejoin: miter"/>
    </g>
   </g>
   <g id="line2d_38">
    <g clip-path="url(#p02f9febc8e)">
     <use xlink:href="#mde32a8a804" x="209.152469" y="45.709969" style="fill: #d03b3b; stroke: #d03b3b; stroke-linejoin: miter"/>
    </g>
   </g>
   <g id="line2d_39">
    <g clip-path="url(#p02f9febc8e)">
     <use xlink:href="#mde32a8a804" x="173.280149" y="50.432649" style="fill: #d03b3b; stroke: #d03b3b; stroke-linejoin: miter"/>
    </g>
   </g>
   <g id="line2d_40">
    <g clip-path="url(#p02f9febc8e)">
     <use xlink:href="#mde32a8a804" x="139.852469" y="64.278848" style="fill: #d03b3b; stroke: #d03b3b; stroke-linejoin: miter"/>
    </g>
   </g>
   <g id="line2d_41">
    <g clip-path="url(#p02f9febc8e)">
     <use xlink:href="#mde32a8a804" x="111.147469" y="86.304969" style="fill: #d03b3b; stroke: #d03b3b; stroke-linejoin: miter"/>
    </g>
   </g>
   <g id="line2d_42">
    <g clip-path="url(#p02f9febc8e)">
     <use xlink:href="#mde32a8a804" x="89.121348" y="115.009969" style="fill: #d03b3b; stroke: #d03b3b; stroke-linejoin: miter"/>
    </g>
   </g>
   <g id="line2d_43">
    <g clip-path="url(#p02f9febc8e)">
     <use xlink:href="#mde32a8a804" x="75.275149" y="148.437649" style="fill: #d03b3b; stroke: #d03b3b; stroke-linejoin: miter"/>
    </g>
   </g>
   <g id="line2d_44">
    <g clip-path="url(#p02f9febc8e)">
     <use xlink:href="#mde32a8a804" x="70.552469" y="184.309969" style="fill: #d03b3b; stroke: #d03b3b; stroke-linejoin: miter"/>
    </g>
   </g>
   <g id="line2d_45">
    <g clip-path="url(#p02f9febc8e)">
     <use xlink:href="#mde32a8a804" x="75.275149" y="220.182288" style="fill: #d03b3b; stroke: #d03b3b; stroke-linejoin: miter"/>
    </g>
   </g>
   <g id="line2d_46">
    <g clip-path="url(#p02f9febc8e)">
     <use xlink:href="#mde32a8a804" x="89.121348" y="253.609969" style="fill: #d03b3b; stroke: #d03b3b; stroke-linejoin: miter"/>
    </g>
   </g>
   <g id="line2d_47">
    <g clip-path="url(#p02f9febc8e)">
     <use xlink:href="#mde32a8a804" x="111.147469" y="282.314969" style="fill: #d03b3b; stroke: #d03b3b; stroke-linejoin: miter"/>
    </g>
   </g>
   <g id="line2d_48">
    <g clip-path="url(#p02f9febc8e)">
     <use xlink:href="#mde32a8a804" x="139.852469" y="304.34109" style="fill: #d03b3b; stroke: #d03b3b; stroke-linejoin: miter"/>
    </g>
   </g>
   <g id="line2d_49">
    <g clip-path="url(#p02f9febc8e)">
     <use xlink:href="#mde32a8a804" x="173.280149" y="318.187288" style="fill: #d03b3b; stroke: #d03b3b; stroke-linejoin: miter"/>
    </g>
   </g>
   <g id="line2d_50">
    <g clip-path="url(#p02f9febc8e)">
     <use xlink:href="#mde32a8a804" x="209.152469" y="322.909969" style="fill: #d03b3b; stroke: #d03b3b; stroke-linejoin: miter"/>
    </g>
   </g>
   <g id="line2d_51">
    <g clip-path="url(#p02f9febc8e)">
     <use xlink:href="#mde32a8a804" x="245.024788" y="318.187288" style="fill: #d03b3b; stroke: #d03b3b; stroke-linejoin: miter"/>
    </g>
   </g>
   <g id="line2d_52">
    <g clip-path="url(#p02f9febc8e)">
     <use xlink:href="#mde32a8a804" x="278.452469" y="304.34109" style="fill: #d03b3b; stroke: #d03b3b; stroke-linejoin: miter"/>
    </g>
   </g>
   <g id="line2d_53">
    <g clip-path="url(#p02f9febc8e)">
     <use xlink:href="#mde32a8a804" x="307.157469" y="282.314969" style="fill: #d03b3b; stroke: #d03b3b; stroke-linejoin: miter"/>
    </g>
   </g>
   <g id="line2d_54">
    <g clip-path="url(#p02f9febc8e)">
     <use xlink:href="#mde32a8a804" x="329.18359" y="253.609969" style="fill: #d03b3b; stroke: #d03b3b; stroke-linejoin: miter"/>
    </g>
   </g>
   <g id="line2d_55">
    <g clip-path="url(#p02f9febc8e)">
     <use xlink:href="#mde32a8a804" x="343.029788" y="220.182288" style="fill: #d03b3b; stroke: #d03b3b; stroke-linejoin: miter"/>
    </g>
   </g>
   <g id="text_17">
    <!-- Every out-of-range request maps onto the polytope -->
    <g style="fill: #0b0b0b" transform="translate(41.785594 17.077969) scale(0.13 -0.13)">
     <defs>
      <path id="DejaVuSans-28" d="M 628 4666 
L 3578 4666 
L 3578 4134 
L 1259 4134 
L 1259 2753 
L 3481 2753 
L 3481 2222 
L 1259 2222 
L 1259 531 
L 3634 531 
L 3634 0 
L 628 0 
L 628 4666 
z
" transform="scale(0.015625)"/>
      <path id="DejaVuSans-59" d="M 191 3500 
L 800 3500 
L 1894 563 
L 2988 3500 
L 3597 3500 
L 2284 0 
L 1503 0 
L 191 3500 
z
" transform="scale(0.015625)"/>
      <path id="DejaVuSans-10" d="M 313 2009 
L 1997 2009 
L 1997 1497 
L 313 1497 
L 313 2009 
z
" transform="scale(0.015625)"/>
      <path id="DejaVuSans-49" d="M 2375 4863 
L 2375 4384 
L 1825 4384 
Q 1516 4384 1395 4259 
Q 1275 4134 1275 3809 
L 1275 3500 
L 2222 3500 
L 2222 3053 
L 1275 3053 
L 1275 0 
L 697 0 
L 697 3053 
L 147 3053 
L 147 3500 
L 697 3500 
L 697 3744 
Q 697 4328 969 4595 
Q 1241 4863 1831 4863 
L 2375 4863 
z
" transform="scale(0.015625)"/>
      <path id="DejaVuSans-51" d="M 3513 2113 
L 3513 0 
L 2938 0 
L 2938 2094 
Q 2938 2591 2744 2837 
Q 2550 3084 2163 3084 
Q 1697 3084 1428 2787 
Q 1159 2491 1159 1978 
L 1159 0 
L 581 0 
L 581 3500 
L 1159 3500 
L 1159 2956 
Q 1366 3272 1645 3428 
Q 1925 3584 2291 3584 
Q 2894 3584 3203 3211 
Q 3513 2838 3513 2113 
z
" transform="scale(0.015625)"/>
      <path id="DejaVuSans-4a" d="M 2906 1791 
Q 2906 2416 2648 2759 
Q 2391 3103 1925 3103 
Q 1463 3103 1205 2759 
Q 947 2416 947 1791 
Q 947 1169 1205 825 
Q 1463 481 1925 481 
Q 2391 481 2648 825 
Q 2906 1169 2906 1791 
z
M 3481 434 
Q 3481 -459 3084 -895 
Q 2688 -1331 1869 -1331 
Q 1566 -1331 1297 -1286 
Q 1028 -1241 775 -1147 
L 775 -588 
Q 1028 -725 1275 -790 
Q 1522 -856 1778 -856 
Q 2344 -856 2625 -561 
Q 2906 -266 2906 331 
L 2906 616 
Q 2728 306 2450 153 
Q 2172 0 1784 0 
Q 1141 0 747 490 
Q 353 981 353 1791 
Q 353 2603 747 3093 
Q 1141 3584 1784 3584 
Q 2172 3584 2450 3431 
Q 2728 3278 2906 2969 
L 2906 3500 
L 3481 3500 
L 3481 434 
z
" transform="scale(0.015625)"/>
      <path id="DejaVuSans-56" d="M 2834 3397 
L 2834 2853 
Q 2591 2978 2328 3040 
Q 2066 3103 1784 3103 
Q 1356 3103 1142 2972 
Q 928 2841 928 2578 
Q 928 2378 1081 2264 
Q 1234 2150 1697 2047 
L 1894 2003 
Q 2506 1872 2764 1633 
Q 3022 1394 3022 966 
Q 3022 478 2636 193 
Q 2250 -91 1575 -91 
Q 1294 -91 989 -36 
Q 684 19 347 128 
L 347 722 
Q 666 556 975 473 
Q 1284 391 1588 391 
Q 1994 391 2212 530 
Q 2431 669 2431 922 
Q 2431 1156 2273 1281 
Q 2116 1406 1581 1522 
L 1381 1569 
Q 847 1681 609 1914 
Q 372 2147 372 2553 
Q 372 3047 722 3315 
Q 1072 3584 1716 3584 
Q 2034 3584 2315 3537 
Q 2597 3491 2834 3397 
z
" transform="scale(0.015625)"/>
      <path id="DejaVuSans-50" d="M 3328 2828 
Q 3544 3216 3844 3400 
Q 4144 3584 4550 3584 
Q 5097 3584 5394 3201 
Q 5691 2819 5691 2113 
L 5691 0 
L 5113 0 
L 5113 2094 
Q 5113 2597 4934 2840 
Q 4756 3084 4391 3084 
Q 3944 3084 3684 2787 
Q 3425 2491 3425 1978 
L 3425 0 
L 2847 0 
L 2847 2094 
Q 2847 2600 2669 2842 
Q 2491 3084 2119 3084 
Q 1678 3084 1418 2786 
Q 1159 2488 1159 1978 
L 1159 0 
L 581 0 
L 581 3500 
L 1159 3500 
L 1159 2956 
Q 1356 3278 1631 3431 
Q 1906 3584 2284 3584 
Q 2666 3584 2933 3390 
Q 3200 3197 3328 2828 
z
" transform="scale(0.015625)"/>
      <path id="DejaVuSans-4f" d="M 603 4863 
L 1178 4863 
L 1178 0 
L 603 0 
L 603 4863 
z
" transform="scale(0.015625)"/>
     </defs>
     <use xlink:href="#DejaVuSans-28"/>
     <use xlink:href="#DejaVuSans-59" transform="translate(63.1875 0)"/>
     <use xlink:href="#DejaVuSans-48" transform="translate(122.375 0)"/>
     <use xlink:href="#DejaVuSans-55" transform="translate(183.90625 0)"/>
     <use xlink:href="#DejaVuSans-5c" transform="translate(225.015625 0)"/>
     <use xlink:href="#DejaVuSans-3" transform="translate(284.203125 0)"/>
     <use xlink:href="#DejaVuSans-52" transform="translate(315.984375 0)"/>
     <use xlink:href="#DejaVuSans-58" transform="translate(377.171875 0)"/>
     <use xlink:href="#DejaVuSans-57" transform="translate(440.546875 0)"/>
     <use xlink:href="#DejaVuSans-10" transform="translate(479.75 0)"/>
     <use xlink:href="#DejaVuSans-52" transform="translate(517.6875 0)"/>
     <use xlink:href="#DejaVuSans-49" transform="translate(578.875 0)"/>
     <use xlink:href="#DejaVuSans-10" transform="translate(608.609375 0)"/>
     <use xlink:href="#DejaVuSans-55" transform="translate(644.6875 0)"/>
     <use xlink:href="#DejaVuSans-44" transform="translate(685.796875 0)"/>
     <use xlink:href="#DejaVuSans-51" transform="translate(747.078125 0)"/>
     <use xlink:href="#DejaVuSans-4a" transform="translate(810.453125 0)"/>
     <use xlink:href="#DejaVuSans-48" transform="translate(873.9375 0)"/>
     <use xlink:href="#DejaVuSans-3" transform="translate(935.46875 0)"/>
     <use xlink:href="#DejaVuSans-55" transform="translate(967.25 0)"/>
     <use xlink:href="#DejaVuSans-48" transform="translate(1006.15625 0)"/>
     <use xlink:href="#DejaVuSans-54" transform="translate(1067.6875 0)"/>
     <use xlink:href="#DejaVuSans-58" transform="translate(1131.171875 0)"/>
     <use xlink:href="#DejaVuSans-48" transform="translate(1194.546875 0)"/>
     <use xlink:href="#DejaVuSans-56" transform="translate(1256.078125 0)"/>
     <use xlink:href="#DejaVuSans-57" transform="translate(1308.171875 0)"/>
     <use xlink:href="#DejaVuSans-3" transform="translate(1347.375 0)"/>
     <use xlink:href="#DejaVuSans-50" transform="translate(1379.15625 0)"/>
     <use xlink:href="#DejaVuSans-44" transform="translate(1476.5625 0)"/>
     <use xlink:href="#DejaVuSans-53" transform="translate(1537.84375 0)"/>
     <use xlink:href="#DejaVuSans-56" transform="translate(1601.328125 0)"/>
     <use xlink:href="#DejaVuSans-3" transform="translate(1653.421875 0)"/>
     <use xlink:href="#DejaVuSans-52" transform="translate(1685.203125 0)"/>
     <use xlink:href="#DejaVuSans-51" transform="translate(1746.390625 0)"/>
     <use xlink:href="#DejaVuSans-57" transform="translate(1809.765625 0)"/>
     <use xlink:href="#DejaVuSans-52" transform="translate(1848.96875 0)"/>
     <use xlink:href="#DejaVuSans-3" transform="translate(1910.15625 0)"/>
     <use xlink:href="#DejaVuSans-57" transform="translate(1941.9375 0)"/>
     <use xlink:href="#DejaVuSans-4b" transform="translate(1981.140625 0)"/>
     <use xlink:href="#DejaVuSans-48" transform="translate(2044.515625 0)"/>
     <use xlink:href="#DejaVuSans-3" transform="translate(2106.046875 0)"/>
     <use xlink:href="#DejaVuSans-53" transform="translate(2137.828125 0)"/>
     <use xlink:href="#DejaVuSans-52" transform="translate(2201.3125 0)"/>
     <use xlink:href="#DejaVuSans-4f" transform="translate(2262.5 0)"/>
     <use xlink:href="#DejaVuSans-5c" transform="translate(2290.28125 0)"/>
     <use xlink:href="#DejaVuSans-57" transform="translate(2349.46875 0)"/>
     <use xlink:href="#DejaVuSans-52" transform="translate(2388.671875 0)"/>
     <use xlink:href="#DejaVuSans-53" transform="translate(2449.859375 0)"/>
     <use xlink:href="#DejaVuSans-48" transform="translate(2513.34375 0)"/>
    </g>
   </g>
   <g id="line2d_56">
    <defs>
     <path id="m2aa71e6543" d="M 0 2.5 
C 0.663008 2.5 1.29895 2.236584 1.767767 1.767767 
C 2.236584 1.29895 2.5 0.663008 2.5 0 
C 2.5 -0.663008 2.236584 -1.29895 1.767767 -1.767767 
C 1.29895 -2.236584 0.663008 -2.5 0 -2.5 
C -0.663008 -2.5 -1.29895 -2.236584 -1.767767 -1.767767 
C -2.236584 -1.29895 -2.5 -0.663008 -2.5 0 
C -2.5 0.663008 -2.236584 1.29895 -1.767767 1.767767 
C -1.29895 2.236584 -0.663008 2.5 0 2.5 
z
" style="stroke: #0ca30c"/>
    </defs>
    <g clip-path="url(#p02f9febc8e)">
     <use xlink:href="#m2aa71e6543" x="298.427831" y="184.309969" style="fill: #0ca30c; stroke: #0ca30c"/>
    </g>
   </g>
   <g id="line2d_57">
    <g clip-path="url(#p02f9febc8e)">
     <use xlink:href="#m2aa71e6543" x="295.595055" y="180.060804" style="fill: #0ca30c; stroke: #0ca30c"/>
    </g>
   </g>
   <g id="line2d_58">
    <g clip-path="url(#p02f9febc8e)">
     <use xlink:href="#m2aa71e6543" x="275.906526" y="150.528011" style="fill: #0ca30c; stroke: #0ca30c"/>
    </g>
   </g>
   <g id="line2d_59">
    <g clip-path="url(#p02f9febc8e)">
     <use xlink:href="#m2aa71e6543" x="255.880797" y="120.489417" style="fill: #0ca30c; stroke: #0ca30c"/>
    </g>
   </g>
   <g id="line2d_60">
    <g clip-path="url(#p02f9febc8e)">
     <use xlink:href="#m2aa71e6543" x="242.9381" y="108.671807" style="fill: #0ca30c; stroke: #0ca30c"/>
    </g>
   </g>
   <g id="line2d_61">
    <g clip-path="url(#p02f9febc8e)">
     <use xlink:href="#m2aa71e6543" x="215.801126" y="86.962228" style="fill: #0ca30c; stroke: #0ca30c"/>
    </g>
   </g>
   <g id="line2d_62">
    <g clip-path="url(#p02f9febc8e)">
     <use xlink:href="#m2aa71e6543" x="209.152469" y="81.643302" style="fill: #0ca30c; stroke: #0ca30c"/>
    </g>
   </g>
   <g id="line2d_63">
    <g clip-path="url(#p02f9febc8e)">
     <use xlink:href="#m2aa71e6543" x="202.503811" y="86.962228" style="fill: #0ca30c; stroke: #0ca30c"/>
    </g>
   </g>
   <g id="line2d_64">
    <g clip-path="url(#p02f9febc8e)">
     <use xlink:href="#m2aa71e6543" x="175.366837" y="108.671807" style="fill: #0ca30c; stroke: #0ca30c"/>
    </g>
   </g>
   <g id="line2d_65">
    <g clip-path="url(#p02f9febc8e)">
     <use xlink:href="#m2aa71e6543" x="162.424141" y="120.489417" style="fill: #0ca30c; stroke: #0ca30c"/>
    </g>
   </g>
   <g id="line2d_66">
    <g clip-path="url(#p02f9febc8e)">
     <use xlink:href="#m2aa71e6543" x="142.398411" y="150.528011" style="fill: #0ca30c; stroke: #0ca30c"/>
    </g>
   </g>
   <g id="line2d_67">
    <g clip-path="url(#p02f9febc8e)">
     <use xlink:href="#m2aa71e6543" x="122.709883" y="180.060804" style="fill: #0ca30c; stroke: #0ca30c"/>
    </g>
   </g>
   <g id="line2d_68">
    <g clip-path="url(#p02f9febc8e)">
     <use xlink:href="#m2aa71e6543" x="119.877106" y="184.309969" style="fill: #0ca30c; stroke: #0ca30c"/>
    </g>
   </g>
   <g id="line2d_69">
    <g clip-path="url(#p02f9febc8e)">
     <use xlink:href="#m2aa71e6543" x="122.709883" y="188.559133" style="fill: #0ca30c; stroke: #0ca30c"/>
    </g>
   </g>
   <g id="line2d_70">
    <g clip-path="url(#p02f9febc8e)">
     <use xlink:href="#m2aa71e6543" x="142.398411" y="218.091926" style="fill: #0ca30c; stroke: #0ca30c"/>
    </g>
   </g>
   <g id="line2d_71">
    <g clip-path="url(#p02f9febc8e)">
     <use xlink:href="#m2aa71e6543" x="162.424141" y="248.13052" style="fill: #0ca30c; stroke: #0ca30c"/>
    </g>
   </g>
   <g id="line2d_72">
    <g clip-path="url(#p02f9febc8e)">
     <use xlink:href="#m2aa71e6543" x="175.366837" y="259.94813" style="fill: #0ca30c; stroke: #0ca30c"/>
    </g>
   </g>
   <g id="line2d_73">
    <g clip-path="url(#p02f9febc8e)">
     <use xlink:href="#m2aa71e6543" x="202.503811" y="281.657709" style="fill: #0ca30c; stroke: #0ca30c"/>
    </g>
   </g>
   <g id="line2d_74">
    <g clip-path="url(#p02f9febc8e)">
     <use xlink:href="#m2aa71e6543" x="209.152469" y="286.976635" style="fill: #0ca30c; stroke: #0ca30c"/>
    </g>
   </g>
   <g id="line2d_75">
    <g clip-path="url(#p02f9febc8e)">
     <use xlink:href="#m2aa71e6543" x="215.801126" y="281.657709" style="fill: #0ca30c; stroke: #0ca30c"/>
    </g>
   </g>
   <g id="line2d_76">
    <g clip-path="url(#p02f9febc8e)">
     <use xlink:href="#m2aa71e6543" x="242.9381" y="259.94813" style="fill: #0ca30c; stroke: #0ca30c"/>
    </g>
   </g>
   <g id="line2d_77">
    <g clip-path="url(#p02f9febc8e)">
     <use xlink:href="#m2aa71e6543" x="255.880797" y="248.13052" style="fill: #0ca30c; stroke: #0ca30c"/>
    </g>
   </g>
   <g id="line2d_78">
    <g clip-path="url(#p02f9febc8e)">
     <use xlink:href="#m2aa71e6543" x="275.906526" y="218.091926" style="fill: #0ca30c; stroke: #0ca30c"/>
    </g>
   </g>
   <g id="line2d_79">
    <g clip-path="url(#p02f9febc8e)">
     <use xlink:href="#m2aa71e6543" x="295.595055" y="188.559133" style="fill: #0ca30c; stroke: #0ca30c"/>
    </g>
   </g>
   <g id="legend_1">
    <g id="patch_32">
     <path d="M 59.870469 74.131289 
L 158.470469 74.131289 
Q 160.170469 74.131289 160.170469 72.431289 
L 160.170469 35.027969 
Q 160.170469 33.327969 158.470469 33.327969 
L 59.870469 33.327969 
Q 58.170469 33.327969 58.170469 35.027969 
L 58.170469 72.431289 
Q 58.170469 74.131289 59.870469 74.131289 
z
" style="fill: #ffffff; opacity: 0.95; stroke: #e4e3df; stroke-linejoin: miter"/>
    </g>
    <g id="line2d_80">
     <path d="M 61.570469 40.212969 
L 70.070469 40.212969 
L 78.570469 40.212969 
" style="fill: none; stroke: #2a78d6; stroke-width: 2.2; stroke-linecap: square"/>
    </g>
    <g id="text_18">
     <!-- attainable set  $\mathcal{A}$ -->
     <g style="fill: #0b0b0b" transform="translate(85.370469 43.187969) scale(0.085 -0.085)">
      <defs>
       <path id="DejaVuSans-45" d="M 3116 1747 
Q 3116 2381 2855 2742 
Q 2594 3103 2138 3103 
Q 1681 3103 1420 2742 
Q 1159 2381 1159 1747 
Q 1159 1113 1420 752 
Q 1681 391 2138 391 
Q 2594 391 2855 752 
Q 3116 1113 3116 1747 
z
M 1159 2969 
Q 1341 3281 1617 3432 
Q 1894 3584 2278 3584 
Q 2916 3584 3314 3078 
Q 3713 2572 3713 1747 
Q 3713 922 3314 415 
Q 2916 -91 2278 -91 
Q 1894 -91 1617 61 
Q 1341 213 1159 525 
L 1159 0 
L 581 0 
L 581 4863 
L 1159 4863 
L 1159 2969 
z
" transform="scale(0.015625)"/>
       <path id="STIXNonUnicode-Italic-73" d="M 5075 416 
L 5197 320 
Q 4928 -198 4365 -198 
Q 4013 -198 3865 74 
Q 3718 346 3706 1024 
L 2182 1024 
Q 2112 922 1961 717 
Q 1811 512 1750 425 
Q 1690 339 1571 192 
Q 1453 45 1382 -16 
Q 1312 -77 1209 -153 
Q 1107 -230 1014 -259 
Q 922 -288 819 -288 
Q 595 -288 435 -131 
Q 275 26 275 243 
Q 275 416 364 521 
Q 454 627 614 627 
Q 717 627 784 572 
Q 851 518 873 457 
Q 896 397 941 342 
Q 986 288 1056 288 
Q 1376 288 1965 1178 
L 4026 4333 
L 4205 4333 
L 4378 883 
Q 4416 198 4691 198 
Q 4941 198 5075 416 
z
M 3699 1280 
L 3616 3232 
L 2330 1280 
Q 2291 1229 2291 1197 
Q 2291 1190 2294 1190 
Q 2298 1190 2298 1184 
Q 2336 1184 2502 1280 
L 3699 1280 
z
" transform="scale(0.015625)"/>
      </defs>
      <use xlink:href="#DejaVuSans-44" transform="translate(0 0.015625)"/>
      <use xlink:href="#DejaVuSans-57" transform="translate(61.279297 0.015625)"/>
      <use xlink:href="#DejaVuSans-57" transform="translate(100.488281 0.015625)"/>
      <use xlink:href="#DejaVuSans-44" transform="translate(139.697266 0.015625)"/>
      <use xlink:href="#DejaVuSans-4c" transform="translate(200.976562 0.015625)"/>
      <use xlink:href="#DejaVuSans-51" transform="translate(228.759766 0.015625)"/>
      <use xlink:href="#DejaVuSans-44" transform="translate(292.138672 0.015625)"/>
      <use xlink:href="#DejaVuSans-45" transform="translate(353.417969 0.015625)"/>
      <use xlink:href="#DejaVuSans-4f" transform="translate(416.894531 0.015625)"/>
      <use xlink:href="#DejaVuSans-48" transform="translate(444.677734 0.015625)"/>
      <use xlink:href="#DejaVuSans-3" transform="translate(506.201172 0.015625)"/>
      <use xlink:href="#DejaVuSans-56" transform="translate(537.988281 0.015625)"/>
      <use xlink:href="#DejaVuSans-48" transform="translate(590.087891 0.015625)"/>
      <use xlink:href="#DejaVuSans-57" transform="translate(651.611328 0.015625)"/>
      <use xlink:href="#DejaVuSans-3" transform="translate(690.820312 0.015625)"/>
      <use xlink:href="#DejaVuSans-3" transform="translate(722.607422 0.015625)"/>
      <use xlink:href="#STIXNonUnicode-Italic-73" transform="translate(754.394531 0.015625)"/>
     </g>
    </g>
    <g id="line2d_81">
     <g>
      <use xlink:href="#mde32a8a804" x="70.070469" y="52.963633" style="fill: #d03b3b; stroke: #d03b3b; stroke-linejoin: miter"/>
     </g>
    </g>
    <g id="text_19">
     <!-- requested -->
     <g style="fill: #0b0b0b" transform="translate(85.370469 55.938633) scale(0.085 -0.085)">
      <defs>
       <path id="DejaVuSans-47" d="M 2906 2969 
L 2906 4863 
L 3481 4863 
L 3481 0 
L 2906 0 
L 2906 525 
Q 2725 213 2448 61 
Q 2172 -91 1784 -91 
Q 1150 -91 751 415 
Q 353 922 353 1747 
Q 353 2572 751 3078 
Q 1150 3584 1784 3584 
Q 2172 3584 2448 3432 
Q 2725 3281 2906 2969 
z
M 947 1747 
Q 947 1113 1208 752 
Q 1469 391 1925 391 
Q 2381 391 2643 752 
Q 2906 1113 2906 1747 
Q 2906 2381 2643 2742 
Q 2381 3103 1925 3103 
Q 1469 3103 1208 2742 
Q 947 2381 947 1747 
z
" transform="scale(0.015625)"/>
      </defs>
      <use xlink:href="#DejaVuSans-55"/>
      <use xlink:href="#DejaVuSans-48" transform="translate(38.90625 0)"/>
      <use xlink:href="#DejaVuSans-54" transform="translate(100.4375 0)"/>
      <use xlink:href="#DejaVuSans-58" transform="translate(163.921875 0)"/>
      <use xlink:href="#DejaVuSans-48" transform="translate(227.296875 0)"/>
      <use xlink:href="#DejaVuSans-56" transform="translate(288.828125 0)"/>
      <use xlink:href="#DejaVuSans-57" transform="translate(340.921875 0)"/>
      <use xlink:href="#DejaVuSans-48" transform="translate(380.125 0)"/>
      <use xlink:href="#DejaVuSans-47" transform="translate(441.65625 0)"/>
     </g>
    </g>
    <g id="line2d_82">
     <g>
      <use xlink:href="#m2aa71e6543" x="70.070469" y="65.714297" style="fill: #0ca30c; stroke: #0ca30c"/>
     </g>
    </g>
    <g id="text_20">
     <!-- delivered -->
     <g style="fill: #0b0b0b" transform="translate(85.370469 68.689297) scale(0.085 -0.085)">
      <use xlink:href="#DejaVuSans-47"/>
      <use xlink:href="#DejaVuSans-48" transform="translate(63.484375 0)"/>
      <use xlink:href="#DejaVuSans-4f" transform="translate(125.015625 0)"/>
      <use xlink:href="#DejaVuSans-4c" transform="translate(152.796875 0)"/>
      <use xlink:href="#DejaVuSans-59" transform="translate(180.578125 0)"/>
      <use xlink:href="#DejaVuSans-48" transform="translate(239.765625 0)"/>
      <use xlink:href="#DejaVuSans-55" transform="translate(301.296875 0)"/>
      <use xlink:href="#DejaVuSans-48" transform="translate(340.203125 0)"/>
      <use xlink:href="#DejaVuSans-47" transform="translate(401.734375 0)"/>
     </g>
    </g>
   </g>
  </g>
 </g>
 <defs>
  <clipPath id="p02f9febc8e">
   <rect x="53.920469" y="29.077969" width="310.464" height="310.464"/>
  </clipPath>
 </defs>
</svg>
